# xmcd
#
# Track frame offsets: 
#        150
#        22172
#        42565
#        66627
#        90240
#        106390
#        120477
#        134652
#        160290
#        175220
#        191152
#        206530
#        233045
#
# Disc length: 3496 seconds
#
# Revision: 1
# Processed by: cddbd v1.5.2PL0 Copyright (c) Steve Scherf et al.
# Submitted via: ExactAudioCopy v0.99pb5
#
DISCID=bd0da60d
DTITLE=Sean Wilson and Susan McCann - The King and Queen Of Irish Country 
DTITLE=Music
DYEAR=1900
DGENRE=Country
TTITLE0=Medley - Everbody's Somebody's Fool-Jambalaya-Country Road-I'l
TTITLE0=l Fly Away-I Saw The Light-Will The Cirele Be Unbroken
TTITLE1=Medley - Thing-Here Comes Summer-This Old House-It Might As We
TTITLE1=ll Rain Until September-Wooden Heart
TTITLE2=Medley - Our House Is Home-Pretty LitteGirl From Omagh-Gysy-Fe
TTITLE2=rrman-Ferry Reel
TTITLE3=Medley - Blanket On the Ground-Ring Of Fire-57 Chevrolet-Sea O
TTITLE3=f Heartbreak-Snowbird
TTITLE4=Summer Of My Dream
TTITLE5=Storybook Chidren
TTITLE6=Love Without End,Amen
TTITLE7=Medley - My Lovly Rose Of Clare-Galway Shawl-Destination Doneg
TTITLE7=al-Old Bog Road-My Wild Irish Rose
TTITLE8=Daddy's Hand
TTITLE9=A Woman's Heart
TTITLE10=Letter Edged In Black
TTITLE11=Medley - Have You Ever Been Lonly-Love Letters In The Sand-Re
TTITLE11=lease Me-Silver Haired Daddy-Jealous Heart
TTITLE12=Medley - Sometimes When We Touch-Can't Help Falling In Love-A
TTITLE12=lways On My Mind-Power Of Love-Iwill Always Love You
EXTD=
EXTT0=
EXTT1=
EXTT2=
EXTT3=
EXTT4=
EXTT5=
EXTT6=
EXTT7=
EXTT8=
EXTT9=
EXTT10=
EXTT11=
EXTT12=
PLAYORDER=
